<?xml version="1.0" encoding="UTF-8"?>
<svg version="1.1" xmlns="http://www.w3.org/2000/svg" width="512" height="512">
<path d="M0 0 C0.79802168 -0.00235223 1.59604336 -0.00470446 2.41824752 -0.00712797 C5.12091723 -0.01384151 7.82353913 -0.01335904 10.52621651 -0.01294994 C12.47199837 -0.01624709 14.41777955 -0.01997234 16.36355984 -0.02409142 C21.73286256 -0.03413628 27.10215409 -0.03783219 32.47146487 -0.04048073 C38.25343285 -0.04437637 44.0353919 -0.05395511 49.8173542 -0.0626936 C63.7907039 -0.08247767 77.76405434 -0.09252609 91.73741454 -0.10142139 C98.31080561 -0.10580058 104.88419586 -0.11116829 111.45758629 -0.11641026 C133.29644486 -0.13342349 155.1353027 -0.14794434 176.97416687 -0.155159 C178.38693053 -0.15563376 179.79969419 -0.15610965 181.21245784 -0.15658666 C181.91307648 -0.15682303 182.61369512 -0.15705941 183.33554463 -0.15730295 C186.88535885 -0.15850418 190.43517305 -0.15971962 193.98498726 -0.16094494 C194.6894642 -0.16118509 195.39394114 -0.16142524 196.11976587 -0.16167267 C218.97131954 -0.16956927 241.82282136 -0.19300845 264.67435238 -0.22550088 C288.82127369 -0.2597727 312.96816446 -0.27950647 337.11511052 -0.28280324 C350.28324441 -0.28497255 363.45130209 -0.29378267 376.61941338 -0.31926441 C387.82991465 -0.34090736 399.04032121 -0.34905348 410.25084101 -0.33929763 C415.97482766 -0.33473446 421.69861865 -0.33675573 427.42257881 -0.35605907 C432.65705033 -0.37355996 437.89118155 -0.37280031 443.12565602 -0.35716178 C445.02471681 -0.3547657 446.92380036 -0.35921157 448.82282613 -0.37099043 C451.39419641 -0.38595846 453.9643371 -0.37654281 456.53567505 -0.36076355 C457.654932 -0.37609686 457.654932 -0.37609686 458.7968002 -0.39173993 C462.26819835 -0.34489011 464.06758234 -0.12130661 466.83847749 2.04995501 C469.81258007 6.03581947 469.52170848 9.77244442 469.53412056 14.64235401 C469.53857724 15.62012469 469.53857724 15.62012469 469.54312396 16.6176483 C469.55178963 18.80002481 469.55331739 20.98234632 469.55481148 23.16473866 C469.55944114 24.73030686 469.56446601 26.29587394 469.56985664 27.8614397 C469.58296791 32.11360293 469.58942306 36.36575037 469.5938673 40.61793065 C469.59679995 43.27538308 469.60090511 45.93283122 469.60537148 48.59028149 C469.61904276 56.90740273 469.62871135 65.22451413 469.63257337 73.54164582 C469.63705402 83.13789374 469.65460381 92.73399922 469.68357396 102.33020383 C469.70519848 109.75114223 469.71527805 117.17204056 469.71661448 124.59301013 C469.71766192 129.02373717 469.72355661 133.45433024 469.7414341 137.88502407 C469.75792822 142.05389049 469.76006382 146.22252242 469.75129509 150.39140987 C469.75052544 151.91879626 469.75485789 153.44619532 469.76475334 154.97354984 C469.77750156 157.06435625 469.77158142 159.15433567 469.76117134 161.24513721 C469.7626379 162.41338441 469.76410446 163.5816316 469.76561546 164.78528023 C469.31498613 168.84277327 468.24994184 171.50527261 466.39367867 175.13422108 C464.08547359 176.28832362 462.7858359 176.25525078 460.21936226 176.24774647 C458.92825035 176.24763317 458.92825035 176.24763317 457.61105537 176.24751759 C456.68080544 176.2423563 455.7505555 176.23719501 454.79211617 176.23187733 C453.84051613 176.23046238 452.88891609 176.22904743 451.90847969 176.22758961 C448.8618477 176.2219812 445.81528854 176.20942727 442.76867867 176.19672108 C440.70617972 176.19170716 438.64367964 176.18714407 436.58117867 176.1830492 C431.5186505 176.17200903 426.45617694 176.15473875 421.39367867 176.13422108 C421.39367867 181.41422108 421.39367867 186.69422108 421.39367867 192.13422108 C423.29633492 192.08781483 425.19899117 192.04140858 427.15930367 191.99359608 C429.65407966 191.95608065 432.1488726 191.91968025 434.64367867 191.88422108 C435.89793648 191.85070545 437.15219429 191.81718983 438.44445992 191.78265858 C439.64973335 191.76976795 440.85500679 191.75687733 442.09680367 191.74359608 C443.20700874 191.72264881 444.31721382 191.70170155 445.46106148 191.68011951 C449.05108998 192.23601803 450.18884381 193.30956368 452.39367867 196.13422108 C452.92492867 198.13422108 452.92492867 198.13422108 452.89367867 200.13422108 C452.90914742 201.12422108 452.90914742 201.12422108 452.92492867 202.13422108 C452.1317577 205.12027649 450.81584019 206.23104255 448.39367867 208.13422108 C445.80065275 208.52659794 443.63174623 208.67253117 441.04101753 208.63758564 C440.29471612 208.6433994 439.54841471 208.64921317 438.7794981 208.6552031 C436.26449978 208.66986716 433.75046766 208.65588864 431.23547554 208.64215565 C429.41995683 208.64676204 427.60444185 208.6531132 425.78893471 208.66106462 C420.78890121 208.67781699 415.78917171 208.66948482 410.78913689 208.65711975 C405.40119263 208.64809569 400.01330186 208.66202582 394.62536812 208.67303944 C384.06602278 208.69085756 373.50679095 208.68697002 362.9474411 208.67538887 C354.36823149 208.66636776 345.78905376 208.66512481 337.20984077 208.66948414 C335.99037868 208.67009707 334.77091659 208.67071 333.51450109 208.67134151 C331.03745015 208.67262037 328.56039921 208.67391722 326.08334827 208.67523187 C302.83751236 208.68664732 279.59173947 208.67350884 256.34591389 208.65203041 C236.38524141 208.63415857 216.42466197 208.63726241 196.46399117 208.65570545 C173.30326237 208.67709513 150.14258887 208.6855486 126.98185158 208.6732564 C124.51373991 208.67198215 122.04562824 208.67072467 119.57751656 208.66948414 C117.75581798 208.66855849 117.75581798 208.66855849 115.89731741 208.66761413 C107.32504611 208.66415552 98.75280978 208.67000057 90.1805439 208.67940235 C79.73862563 208.69060259 69.29682768 208.68762395 58.85492325 208.66627938 C53.52383104 208.65574234 48.1929397 208.65169222 42.86184883 208.66487598 C37.98641045 208.67675087 33.11136007 208.67031872 28.23595715 208.64896578 C26.4675151 208.64447882 24.69904061 208.64681255 22.93061924 208.65646893 C20.53538662 208.66854981 18.14150085 208.65624419 15.7463398 208.63758564 C15.05207925 208.6469503 14.3578187 208.65631497 13.64251995 208.66596341 C10.28477933 208.61331529 8.64232283 208.32958965 5.96734047 206.22776079 C4.25919212 203.9553053 3.84984899 202.93932024 3.89367867 200.13422108 C3.88336617 199.47422108 3.87305367 198.81422108 3.86242867 198.13422108 C4.64765097 195.17809004 6.01872991 194.03437547 8.39367867 192.13422108 C11.41809273 191.68011951 11.41809273 191.68011951 14.90930367 191.74359608 C16.7848896 191.76293201 16.7848896 191.76293201 18.69836617 191.78265858 C20.00031929 191.8161742 21.30227242 191.84968983 22.64367867 191.88422108 C23.96110054 191.90226795 25.27852242 191.92031483 26.63586617 191.93890858 C29.88878023 191.98605226 33.14132083 192.05779491 36.39367867 192.13422108 C36.39367867 186.85422108 36.39367867 181.57422108 36.39367867 176.13422108 C35.08173531 176.15516834 33.76979195 176.17611561 32.41809273 176.19769764 C27.55036523 176.27010078 22.68268532 176.31602221 17.8145771 176.35394764 C15.70772485 176.37406234 13.60092841 176.40135775 11.4942646 176.43597889 C8.4658042 176.48450276 5.43808188 176.50719124 2.40930367 176.52484608 C0.99660194 176.55581379 0.99660194 176.55581379 -0.44463921 176.58740711 C-6.94838485 176.58963845 -6.94838485 176.58963845 -10.1697979 174.35980701 C-12.61938822 170.56469053 -12.73594138 167.10352238 -12.76745415 162.6505785 C-12.77706169 161.55231236 -12.78666924 160.45404621 -12.79656792 159.32249928 C-12.80081779 158.14017216 -12.80506767 156.95784504 -12.80944633 155.73968983 C-12.81514641 154.51897282 -12.82084648 153.29825581 -12.82671928 152.04054737 C-12.83616485 149.45744155 -12.8427015 146.87432371 -12.84655571 144.2912035 C-12.8562582 140.34738525 -12.88728556 136.40408884 -12.91882133 132.46039295 C-12.92535193 129.94932833 -12.93060218 127.43825999 -12.93444633 124.92718983 C-12.94679314 123.7509354 -12.95913994 122.57468098 -12.97186089 121.36278248 C-12.94135521 110.10296494 -12.94135521 110.10296494 -9.60632133 105.13422108 C-6.63632133 104.63922108 -6.63632133 104.63922108 -3.60632133 104.13422108 C-3.60632133 98.85422108 -3.60632133 93.57422108 -3.60632133 88.13422108 C-5.58632133 87.80422108 -7.56632133 87.47422108 -9.60632133 87.13422108 C-12.05754639 83.4573835 -12.31129488 80.40704855 -11.60632133 76.13422108 C-9.85632133 73.63422108 -9.85632133 73.63422108 -7.60632133 72.13422108 C-6.28632133 72.13422108 -4.96632133 72.13422108 -3.60632133 72.13422108 C-3.60632133 66.85422108 -3.60632133 61.57422108 -3.60632133 56.13422108 C-5.58632133 55.80422108 -7.56632133 55.47422108 -9.60632133 55.13422108 C-12.86015134 49.87862868 -13.04983106 45.00957058 -13.00475883 38.94672108 C-13.00762901 38.08538563 -13.01049919 37.22405018 -13.01345634 36.33661366 C-13.01548794 34.52467658 -13.0100217 32.71271713 -12.99743462 30.90082264 C-12.9813677 28.1421813 -12.99731384 25.38500485 -13.01647758 22.62640858 C-13.01449499 20.85817621 -13.01065098 19.08994474 -13.00475883 17.32172108 C-13.01386787 16.09642689 -13.01386787 16.09642689 -13.02316093 14.84637928 C-12.95888404 9.56020373 -12.11400347 5.81747243 -9.60632133 1.13422108 C-6.5483384 -0.39477039 -3.35518865 -0.00662957 0 0 Z " fill="#2FAFEF" transform="translate(27.606321334838867,55.86577892303467)"/>
<path d="M0 0 C0.79802168 -0.00235223 1.59604336 -0.00470446 2.41824752 -0.00712797 C5.12091723 -0.01384151 7.82353913 -0.01335904 10.52621651 -0.01294994 C12.47199837 -0.01624709 14.41777955 -0.01997234 16.36355984 -0.02409142 C21.73286256 -0.03413628 27.10215409 -0.03783219 32.47146487 -0.04048073 C38.25343285 -0.04437637 44.0353919 -0.05395511 49.8173542 -0.0626936 C63.7907039 -0.08247767 77.76405434 -0.09252609 91.73741454 -0.10142139 C98.31080561 -0.10580058 104.88419586 -0.11116829 111.45758629 -0.11641026 C133.29644486 -0.13342349 155.1353027 -0.14794434 176.97416687 -0.155159 C178.38693053 -0.15563376 179.79969419 -0.15610965 181.21245784 -0.15658666 C181.91307648 -0.15682303 182.61369512 -0.15705941 183.33554463 -0.15730295 C186.88535885 -0.15850418 190.43517305 -0.15971962 193.98498726 -0.16094494 C194.6894642 -0.16118509 195.39394114 -0.16142524 196.11976587 -0.16167267 C218.97131954 -0.16956927 241.82282136 -0.19300845 264.67435238 -0.22550088 C288.82127369 -0.2597727 312.96816446 -0.27950647 337.11511052 -0.28280324 C350.28324441 -0.28497255 363.45130209 -0.29378267 376.61941338 -0.31926441 C387.82991465 -0.34090736 399.04032121 -0.34905348 410.25084101 -0.33929763 C415.97482766 -0.33473446 421.69861865 -0.33675573 427.42257881 -0.35605907 C432.65705033 -0.37355996 437.89118155 -0.37280031 443.12565602 -0.35716178 C445.02471681 -0.3547657 446.92380036 -0.35921157 448.82282613 -0.37099043 C451.39419641 -0.38595846 453.9643371 -0.37654281 456.53567505 -0.36076355 C457.654932 -0.37609686 457.654932 -0.37609686 458.7968002 -0.39173993 C462.26819835 -0.34489011 464.06758234 -0.12130661 466.83847749 2.04995501 C469.81258007 6.03581947 469.52170848 9.77244442 469.53412056 14.64235401 C469.53857724 15.62012469 469.53857724 15.62012469 469.54312396 16.6176483 C469.55178963 18.80002481 469.55331739 20.98234632 469.55481148 23.16473866 C469.55944114 24.73030686 469.56446601 26.29587394 469.56985664 27.8614397 C469.58296791 32.11360293 469.58942306 36.36575037 469.5938673 40.61793065 C469.59679995 43.27538308 469.60090511 45.93283122 469.60537148 48.59028149 C469.61904276 56.90740273 469.62871135 65.22451413 469.63257337 73.54164582 C469.63705402 83.13789374 469.65460381 92.73399922 469.68357396 102.33020383 C469.70519848 109.75114223 469.71527805 117.17204056 469.71661448 124.59301013 C469.71766192 129.02373717 469.72355661 133.45433024 469.7414341 137.88502407 C469.75792822 142.05389049 469.76006382 146.22252242 469.75129509 150.39140987 C469.75052544 151.91879626 469.75485789 153.44619532 469.76475334 154.97354984 C469.77750156 157.06435625 469.77158142 159.15433567 469.76117134 161.24513721 C469.7626379 162.41338441 469.76410446 163.5816316 469.76561546 164.78528023 C469.31498613 168.84277327 468.24994184 171.50527261 466.39367867 175.13422108 C464.08547359 176.28832362 462.7858359 176.25525078 460.21936226 176.24774647 C458.92825035 176.24763317 458.92825035 176.24763317 457.61105537 176.24751759 C456.68080544 176.2423563 455.7505555 176.23719501 454.79211617 176.23187733 C453.84051613 176.23046238 452.88891609 176.22904743 451.90847969 176.22758961 C448.8618477 176.2219812 445.81528854 176.20942727 442.76867867 176.19672108 C440.70617972 176.19170716 438.64367964 176.18714407 436.58117867 176.1830492 C431.5186505 176.17200903 426.45617694 176.15473875 421.39367867 176.13422108 C421.39367867 181.41422108 421.39367867 186.69422108 421.39367867 192.13422108 C423.29633492 192.08781483 425.19899117 192.04140858 427.15930367 191.99359608 C429.65407966 191.95608065 432.1488726 191.91968025 434.64367867 191.88422108 C435.89793648 191.85070545 437.15219429 191.81718983 438.44445992 191.78265858 C439.64973335 191.76976795 440.85500679 191.75687733 442.09680367 191.74359608 C443.20700874 191.72264881 444.31721382 191.70170155 445.46106148 191.68011951 C449.05108998 192.23601803 450.18884381 193.30956368 452.39367867 196.13422108 C452.92492867 198.13422108 452.92492867 198.13422108 452.89367867 200.13422108 C452.90914742 201.12422108 452.90914742 201.12422108 452.92492867 202.13422108 C452.1317577 205.12027649 450.81584019 206.23104255 448.39367867 208.13422108 C445.80065275 208.52659794 443.63174623 208.67253117 441.04101753 208.63758564 C440.29471612 208.6433994 439.54841471 208.64921317 438.7794981 208.6552031 C436.26449978 208.66986716 433.75046766 208.65588864 431.23547554 208.64215565 C429.41995683 208.64676204 427.60444185 208.6531132 425.78893471 208.66106462 C420.78890121 208.67781699 415.78917171 208.66948482 410.78913689 208.65711975 C405.40119263 208.64809569 400.01330186 208.66202582 394.62536812 208.67303944 C384.06602278 208.69085756 373.50679095 208.68697002 362.9474411 208.67538887 C354.36823149 208.66636776 345.78905376 208.66512481 337.20984077 208.66948414 C335.99037868 208.67009707 334.77091659 208.67071 333.51450109 208.67134151 C331.03745015 208.67262037 328.56039921 208.67391722 326.08334827 208.67523187 C302.83751236 208.68664732 279.59173947 208.67350884 256.34591389 208.65203041 C236.38524141 208.63415857 216.42466197 208.63726241 196.46399117 208.65570545 C173.30326237 208.67709513 150.14258887 208.6855486 126.98185158 208.6732564 C124.51373991 208.67198215 122.04562824 208.67072467 119.57751656 208.66948414 C117.75581798 208.66855849 117.75581798 208.66855849 115.89731741 208.66761413 C107.32504611 208.66415552 98.75280978 208.67000057 90.1805439 208.67940235 C79.73862563 208.69060259 69.29682768 208.68762395 58.85492325 208.66627938 C53.52383104 208.65574234 48.1929397 208.65169222 42.86184883 208.66487598 C37.98641045 208.67675087 33.11136007 208.67031872 28.23595715 208.64896578 C26.4675151 208.64447882 24.69904061 208.64681255 22.93061924 208.65646893 C20.53538662 208.66854981 18.14150085 208.65624419 15.7463398 208.63758564 C15.05207925 208.6469503 14.3578187 208.65631497 13.64251995 208.66596341 C10.28477933 208.61331529 8.64232283 208.32958965 5.96734047 206.22776079 C4.25919212 203.9553053 3.84984899 202.93932024 3.89367867 200.13422108 C3.88336617 199.47422108 3.87305367 198.81422108 3.86242867 198.13422108 C4.64765097 195.17809004 6.01872991 194.03437547 8.39367867 192.13422108 C11.41809273 191.68011951 11.41809273 191.68011951 14.90930367 191.74359608 C16.7848896 191.76293201 16.7848896 191.76293201 18.69836617 191.78265858 C20.00031929 191.8161742 21.30227242 191.84968983 22.64367867 191.88422108 C23.96110054 191.90226795 25.27852242 191.92031483 26.63586617 191.93890858 C29.88878023 191.98605226 33.14132083 192.05779491 36.39367867 192.13422108 C36.39367867 186.85422108 36.39367867 181.57422108 36.39367867 176.13422108 C35.08173531 176.15516834 33.76979195 176.17611561 32.41809273 176.19769764 C27.55036523 176.27010078 22.68268532 176.31602221 17.8145771 176.35394764 C15.70772485 176.37406234 13.60092841 176.40135775 11.4942646 176.43597889 C8.4658042 176.48450276 5.43808188 176.50719124 2.40930367 176.52484608 C0.99660194 176.55581379 0.99660194 176.55581379 -0.44463921 176.58740711 C-6.94838485 176.58963845 -6.94838485 176.58963845 -10.1697979 174.35980701 C-12.61938822 170.56469053 -12.73594138 167.10352238 -12.76745415 162.6505785 C-12.77706169 161.55231236 -12.78666924 160.45404621 -12.79656792 159.32249928 C-12.80081779 158.14017216 -12.80506767 156.95784504 -12.80944633 155.73968983 C-12.81514641 154.51897282 -12.82084648 153.29825581 -12.82671928 152.04054737 C-12.83616485 149.45744155 -12.8427015 146.87432371 -12.84655571 144.2912035 C-12.8562582 140.34738525 -12.88728556 136.40408884 -12.91882133 132.46039295 C-12.92535193 129.94932833 -12.93060218 127.43825999 -12.93444633 124.92718983 C-12.94679314 123.7509354 -12.95913994 122.57468098 -12.97186089 121.36278248 C-12.95517988 115.20572938 -12.73141528 110.51564046 -9.60632133 105.13422108 C-7.17171157 103.9169162 -5.86241847 104.08730294 -3.16882133 104.32172108 C-2.3863604 104.37715076 -1.60389946 104.43258045 -0.79772758 104.48968983 C1.39367867 105.13422108 1.39367867 105.13422108 4.39367867 109.13422108 C4.39367867 125.96422108 4.39367867 142.79422108 4.39367867 160.13422108 C136.39367867 160.13422108 268.39367867 160.13422108 404.39367867 160.13422108 C404.39367867 112.61422108 404.39367867 65.09422108 404.39367867 16.13422108 C272.39367867 16.13422108 140.39367867 16.13422108 4.39367867 16.13422108 C4.39367867 27.35422108 4.39367867 38.57422108 4.39367867 50.13422108 C1.39367867 55.13422108 1.39367867 55.13422108 -0.72741508 55.98187733 C-6.97373663 56.56121575 -6.97373663 56.56121575 -10.10632133 54.44672108 C-12.28925725 51.08136154 -12.72770188 48.08174457 -12.76745415 44.1193285 C-12.77706169 43.34139439 -12.78666924 42.56346027 -12.79656792 41.7619524 C-12.80081779 40.92960575 -12.80506767 40.0972591 -12.80944633 39.23968983 C-12.81514641 38.37410954 -12.82084648 37.50852924 -12.82671928 36.61671925 C-12.83615334 34.7868722 -12.84269693 32.95700829 -12.84655571 31.127141 C-12.85625044 28.34208661 -12.88728415 25.55777395 -12.91882133 22.77289295 C-12.92535316 20.99099627 -12.93060293 19.20909434 -12.93444633 17.42718983 C-12.94679314 16.60091587 -12.95913994 15.77464191 -12.97186089 14.92332935 C-12.95153727 9.59107401 -12.14612232 5.85403079 -9.60632133 1.13422108 C-6.5483384 -0.39477039 -3.35518865 -0.00662957 0 0 Z " fill="#133342" transform="translate(27.606321334838867,55.86577892303467)"/>
<path d="M0 0 C2.96991701 0.60983922 4.20486489 1.94625545 5.90234375 4.390625 C6.97106749 7.62839299 7.02572979 10.64015726 7.02259827 14.034729 C7.02397293 15.18455261 7.0253476 16.33437622 7.02676392 17.51904297 C7.02316864 18.7763623 7.01957336 20.03368164 7.01586914 21.32910156 C7.015587 22.66957599 7.01574554 24.01005057 7.01631165 25.3505249 C7.01659856 28.98654926 7.01071893 32.62254063 7.00373769 36.25855732 C6.99748654 40.05955653 6.99689895 43.8605565 6.99571228 47.66156006 C6.99260417 54.8579587 6.98439777 62.05434214 6.97436279 69.25073409 C6.96109557 78.9761696 6.95569755 88.70160927 6.94986057 98.42705154 C6.94045755 113.74825407 6.92053515 129.06942455 6.90234375 144.390625 C33.30234375 144.390625 59.70234375 144.390625 86.90234375 144.390625 C87.89234375 141.420625 87.89234375 141.420625 88.90234375 138.390625 C92.38367937 133.66005021 97.03664031 129.55132957 102.90234375 128.390625 C110.79211937 127.63742446 118.46774101 127.22278969 124.90234375 132.390625 C129.94755597 137.19511139 133.5079737 141.55239555 134.23828125 148.66015625 C134.33217579 157.17639073 134.02007255 163.06657994 128.03125 169.35546875 C121.12739644 175.7372918 115.70066446 176.87104752 106.34765625 176.6953125 C98.43024492 175.99513327 94.29661882 172.276431 89.25 166.390625 C87.86665689 164.33766363 87.43191838 162.77884176 86.90234375 160.390625 C85.16800079 160.40394867 85.16800079 160.40394867 83.39862061 160.4175415 C72.50997424 160.49857723 61.62138894 160.55856638 50.73250961 160.59787369 C45.13420814 160.61876128 39.53614981 160.64710064 33.93798828 160.69238281 C28.53689428 160.73579827 23.13603437 160.75975328 17.73477936 160.77013397 C15.67264368 160.77753304 13.61052101 160.79198147 11.5484848 160.81354523 C8.66322499 160.84252178 5.77893626 160.84658338 2.89355469 160.84472656 C2.03831711 160.85910767 1.18307953 160.87348877 0.30192566 160.88830566 C-0.48608932 160.88280701 -1.27410431 160.87730835 -2.08599854 160.87164307 C-2.76812534 160.87533024 -3.45025215 160.87901741 -4.15304947 160.88281631 C-7.11139529 160.13404174 -8.27549516 158.80409479 -10.09765625 156.390625 C-10.60102081 153.5357666 -10.60102081 153.5357666 -10.60559082 150.16601562 C-10.61687012 148.88734619 -10.62814941 147.60867676 -10.63977051 146.29125977 C-10.63199348 144.87646258 -10.62380082 143.46166763 -10.61523438 142.046875 C-10.62065517 140.55525021 -10.62777759 139.06363077 -10.63647461 137.57202148 C-10.65471629 133.52239872 -10.64763715 129.47318339 -10.63495827 125.42355347 C-10.62483489 121.18665464 -10.6342221 116.94979082 -10.64050293 112.71289062 C-10.64778128 105.5975925 -10.63818677 98.48246042 -10.61914062 91.3671875 C-10.59737144 83.139597 -10.60442268 74.91240297 -10.62644625 66.68482208 C-10.64459495 59.62228246 -10.64716119 52.55986223 -10.63669157 45.49730682 C-10.63045369 41.27849325 -10.62962899 37.05986607 -10.64283752 32.84106445 C-10.65438781 28.87482127 -10.64638587 24.90908951 -10.6232605 20.94290161 C-10.61796893 19.48683522 -10.61949491 18.03072583 -10.62831116 16.57467651 C-10.63923059 14.58821138 -10.62311325 12.60165224 -10.60559082 10.61523438 C-10.60408272 9.50321655 -10.60257462 8.39119873 -10.60102081 7.2454834 C-9.517844 1.10218957 -5.60724409 -0.29237027 0 0 Z " fill="#2778A3" transform="translate(282.09765625,279.609375)"/>
<path d="M0 0 C2.77259276 2.16448249 3.88495929 3.3475406 4.50336456 6.8548584 C4.50487267 7.96687622 4.50638077 9.07889404 4.50793457 10.22460938 C4.51921387 11.50327881 4.53049316 12.78194824 4.54211426 14.09936523 C4.53433723 15.51416242 4.52614457 16.92895737 4.51757812 18.34375 C4.52299892 19.83537479 4.53012134 21.32699423 4.53881836 22.81860352 C4.55706004 26.86822628 4.5499809 30.91744161 4.53730202 34.96707153 C4.52717864 39.20397036 4.53656585 43.44083418 4.54284668 47.67773438 C4.55012503 54.7930325 4.54053052 61.90816458 4.52148438 69.0234375 C4.49971519 77.251028 4.50676643 85.47822203 4.52879 93.70580292 C4.5469387 100.76834254 4.54950494 107.83076277 4.53903532 114.89331818 C4.53279744 119.11213175 4.53197274 123.33075893 4.54518127 127.54956055 C4.55673156 131.51580373 4.54872962 135.48153549 4.52560425 139.44772339 C4.52031268 140.90378978 4.52183866 142.35989917 4.53065491 143.81594849 C4.54157434 145.80241362 4.525457 147.78897276 4.50793457 149.77539062 C4.50642647 150.88740845 4.50491837 151.99942627 4.50336456 153.1451416 C3.87786703 156.69268353 2.87207216 157.87598895 0 160 C-1.94460678 160.49219131 -1.94460678 160.49219131 -4.01165771 160.48101807 C-5.19368019 160.48926605 -5.19368019 160.48926605 -6.39958191 160.49768066 C-7.68243828 160.47610901 -7.68243828 160.47610901 -8.99121094 160.45410156 C-9.89887711 160.45468567 -10.80654327 160.45526978 -11.74171448 160.45587158 C-14.73965801 160.45308649 -17.73660532 160.4219742 -20.734375 160.390625 C-22.81373552 160.38316413 -24.89310308 160.37747047 -26.97247314 160.37347412 C-32.44382154 160.35820575 -37.9147448 160.31891326 -43.38592529 160.2746582 C-48.96946461 160.23373163 -54.55307266 160.21546867 -60.13671875 160.1953125 C-71.09133256 160.15242043 -82.04563092 160.08415429 -93 160 C-93.449198 161.42276245 -93.449198 161.42276245 -93.9074707 162.87426758 C-95.88624877 168.53556268 -100.09582558 171.79531823 -105.0625 174.9375 C-111.77307977 177.36666915 -120.89319598 177.37591485 -127.4375 174.5 C-133.26235779 170.98003218 -137.98216582 165.51037066 -140 159 C-140.80514105 151.16391792 -141.12460392 143.38077423 -136 137 C-131.19551361 131.95478778 -126.83822945 128.39437005 -119.73046875 127.6640625 C-111.18114273 127.56980312 -105.30690155 127.89498446 -99 133.90625 C-95.82034459 137.34232923 -94.15818909 139.36724364 -93 144 C-66.6 144 -40.2 144 -13 144 C-13.03480469 134.26371094 -13.06960937 124.52742188 -13.10546875 114.49609375 C-13.12079629 108.33007574 -13.13536226 102.16407153 -13.14648438 95.99804688 C-13.16428193 86.20983157 -13.18519921 76.42169376 -13.22631836 66.63354492 C-13.25625157 59.5047298 -13.27558232 52.37597759 -13.28226548 45.24710137 C-13.28617112 41.47357365 -13.29532879 37.70022587 -13.31719017 33.92675591 C-13.33761741 30.37188723 -13.3438213 26.81727188 -13.33932304 23.26235008 C-13.34053634 21.34209327 -13.35664579 19.42186378 -13.3732605 17.50167847 C-13.35097742 11.26657856 -13.19351138 6.44140599 -10 1 C-6.87057535 -0.56471233 -3.38917777 -0.69701958 0 0 Z " fill="#277AA1" transform="translate(236,280)"/>
<path d="M0 0 C0.66569504 -0.00554901 1.33139008 -0.01109802 2.01725769 -0.01681519 C4.20691044 -0.02857861 6.39447797 -0.00437471 8.58398438 0.02148438 C10.11185614 0.02319649 11.63973084 0.02312877 13.16760254 0.0213623 C16.36543997 0.02301365 19.56257476 0.04167599 22.76025391 0.07324219 C26.85265379 0.1129199 30.94413402 0.11728643 35.03668976 0.10977936 C38.19037249 0.1067051 41.3438497 0.11884625 44.4974823 0.13591003 C46.00610565 0.14292529 47.5147523 0.14606636 49.02339172 0.1452179 C51.13450962 0.14702221 53.24453978 0.16845545 55.35546875 0.1953125 C57.15485901 0.20794128 57.15485901 0.20794128 58.99060059 0.2208252 C62.47938538 0.65256382 64.38053785 1.52169287 67.17773438 3.61523438 C68.42730233 6.11437029 68.31815741 7.83163613 68.33886719 10.62817383 C68.34847473 11.67298416 68.35808228 12.71779449 68.36798096 13.79426575 C68.37223083 14.92756821 68.37648071 16.06087067 68.38085938 17.22851562 C68.38655945 18.39021774 68.39225952 19.55191986 68.39813232 20.74882507 C68.40759233 23.2110401 68.41412026 25.67326785 68.41796875 28.13549805 C68.42766747 31.9017551 68.45867946 35.66746503 68.49023438 39.43359375 C68.49676492 41.82356446 68.50201519 44.21353908 68.50585938 46.60351562 C68.51820618 47.73074539 68.53055298 48.85797516 68.54327393 50.0193634 C68.54027283 51.07363022 68.53727173 52.12789703 68.53417969 53.21411133 C68.53964813 54.60071709 68.53964813 54.60071709 68.54522705 56.01533508 C68.09672464 59.18835369 67.0904652 61.05960431 65.17773438 63.61523438 C62.16282881 64.6202029 60.13591746 64.7185874 56.99023438 64.67773438 C55.63865234 64.66419922 55.63865234 64.66419922 54.25976562 64.65039062 C53.57269531 64.63878906 52.885625 64.6271875 52.17773438 64.61523438 C52.22994141 65.61103516 52.22994141 65.61103516 52.28320312 66.62695312 C52.56225333 75.7293052 52.56225333 75.7293052 49.17773438 79.61523438 C45.40804628 80.87179707 41.86055695 80.79698799 37.93164062 80.81835938 C37.1241185 80.82405945 36.31659637 80.82975952 35.48460388 80.83563232 C33.77742825 80.84507272 32.07023448 80.85161249 30.36303711 80.85546875 C27.75342062 80.86518528 25.14458831 80.89622128 22.53515625 80.92773438 C20.87565571 80.9342637 19.21614955 80.93951445 17.55664062 80.94335938 C16.7773671 80.95570618 15.99809357 80.96805298 15.19520569 80.98077393 C11.95496273 80.96746725 9.59389643 80.84063312 6.71655273 79.28222656 C3.93726617 76.27144302 4.06465038 73.32270176 4.11523438 69.42773438 C4.12876953 68.07615234 4.12876953 68.07615234 4.14257812 66.69726562 C4.15417969 66.01019531 4.16578125 65.323125 4.17773438 64.61523438 C3.05625 64.66744141 3.05625 64.66744141 1.91210938 64.72070312 C0.92726563 64.74777344 -0.05757813 64.77484375 -1.07226562 64.80273438 C-2.04679687 64.83753906 -3.02132813 64.87234375 -4.02539062 64.90820312 C-7.2500348 64.57042615 -8.53017359 63.87052676 -10.82226562 61.61523438 C-11.81476399 58.63773928 -11.97162919 56.60049503 -12.01513672 53.48876953 C-12.03923111 51.92166733 -12.03923111 51.92166733 -12.06381226 50.32290649 C-12.10828905 45.55512174 -12.14930867 40.78747482 -12.17236328 36.01953125 C-12.18894187 33.50348676 -12.21625644 30.98748973 -12.25439453 28.47167969 C-12.30908779 24.84480347 -12.33102484 21.21902962 -12.34570312 17.59179688 C-12.3683725 16.46770416 -12.39104187 15.34361145 -12.41439819 14.18545532 C-12.41154816 13.1344162 -12.40869812 12.08337708 -12.40576172 11.00048828 C-12.41384857 10.07910065 -12.42193542 9.15771301 -12.43026733 8.20840454 C-10.86931303 1.55082436 -6.25450608 -0.01071157 0 0 Z " fill="#143342" transform="translate(347.822265625,103.384765625)"/>
<path d="M0 0 C0.66569504 -0.00554901 1.33139008 -0.01109802 2.01725769 -0.01681519 C4.20691044 -0.02857861 6.39447797 -0.00437471 8.58398438 0.02148438 C10.11185614 0.02319649 11.63973084 0.02312877 13.16760254 0.0213623 C16.36543997 0.02301365 19.56257476 0.04167599 22.76025391 0.07324219 C26.85265379 0.1129199 30.94413402 0.11728643 35.03668976 0.10977936 C38.19037249 0.1067051 41.3438497 0.11884625 44.4974823 0.13591003 C46.00610565 0.14292529 47.5147523 0.14606636 49.02339172 0.1452179 C51.13450962 0.14702221 53.24453978 0.16845545 55.35546875 0.1953125 C57.15485901 0.20794128 57.15485901 0.20794128 58.99060059 0.2208252 C62.47938538 0.65256382 64.38053785 1.52169287 67.17773438 3.61523438 C68.42730233 6.11437029 68.31815741 7.83163613 68.33886719 10.62817383 C68.34847473 11.67298416 68.35808228 12.71779449 68.36798096 13.79426575 C68.37223083 14.92756821 68.37648071 16.06087067 68.38085938 17.22851562 C68.38655945 18.39021774 68.39225952 19.55191986 68.39813232 20.74882507 C68.40759233 23.2110401 68.41412026 25.67326785 68.41796875 28.13549805 C68.42766747 31.9017551 68.45867946 35.66746503 68.49023438 39.43359375 C68.49676492 41.82356446 68.50201519 44.21353908 68.50585938 46.60351562 C68.51820618 47.73074539 68.53055298 48.85797516 68.54327393 50.0193634 C68.54027283 51.07363022 68.53727173 52.12789703 68.53417969 53.21411133 C68.53964813 54.60071709 68.53964813 54.60071709 68.54522705 56.01533508 C68.09672464 59.18835369 67.0904652 61.05960431 65.17773438 63.61523438 C62.16282881 64.6202029 60.13591746 64.7185874 56.99023438 64.67773438 C55.63865234 64.66419922 55.63865234 64.66419922 54.25976562 64.65039062 C53.57269531 64.63878906 52.885625 64.6271875 52.17773438 64.61523438 C52.22994141 65.61103516 52.22994141 65.61103516 52.28320312 66.62695312 C52.56225333 75.7293052 52.56225333 75.7293052 49.17773438 79.61523438 C45.40804628 80.87179707 41.86055695 80.79698799 37.93164062 80.81835938 C37.1241185 80.82405945 36.31659637 80.82975952 35.48460388 80.83563232 C33.77742825 80.84507272 32.07023448 80.85161249 30.36303711 80.85546875 C27.75342062 80.86518528 25.14458831 80.89622128 22.53515625 80.92773438 C20.87565571 80.9342637 19.21614955 80.93951445 17.55664062 80.94335938 C16.7773671 80.95570618 15.99809357 80.96805298 15.19520569 80.98077393 C11.95496273 80.96746725 9.59389643 80.84063312 6.71655273 79.28222656 C3.93726617 76.27144302 4.06465038 73.32270176 4.11523438 69.42773438 C4.12876953 68.07615234 4.12876953 68.07615234 4.14257812 66.69726562 C4.15417969 66.01019531 4.16578125 65.323125 4.17773438 64.61523438 C3.05625 64.66744141 3.05625 64.66744141 1.91210938 64.72070312 C0.92726562 64.74777344 -0.05757812 64.77484375 -1.07226562 64.80273438 C-2.04679688 64.83753906 -3.02132812 64.87234375 -4.02539062 64.90820312 C-7.2500348 64.57042615 -8.53017359 63.87052676 -10.82226562 61.61523438 C-11.81476399 58.63773928 -11.97162919 56.60049503 -12.01513672 53.48876953 C-12.03923111 51.92166733 -12.03923111 51.92166733 -12.06381226 50.32290649 C-12.10828905 45.55512174 -12.14930867 40.78747482 -12.17236328 36.01953125 C-12.18894187 33.50348676 -12.21625644 30.98748973 -12.25439453 28.47167969 C-12.30908779 24.84480347 -12.33102484 21.21902962 -12.34570312 17.59179688 C-12.3683725 16.46770416 -12.39104187 15.34361145 -12.41439819 14.18545532 C-12.41154816 13.1344162 -12.40869812 12.08337708 -12.40576172 11.00048828 C-12.41384857 10.07910065 -12.42193542 9.15771301 -12.43026733 8.20840454 C-10.86931303 1.55082436 -6.25450608 -0.01071157 0 0 Z " fill="#143342" transform="translate(251.822265625,103.384765625)"/>
<path d="M0 0 C0.66569504 -0.00554901 1.33139008 -0.01109802 2.01725769 -0.01681519 C4.20691044 -0.02857861 6.39447797 -0.00437471 8.58398438 0.02148438 C10.11185614 0.02319649 11.63973084 0.02312877 13.16760254 0.0213623 C16.36543997 0.02301365 19.56257476 0.04167599 22.76025391 0.07324219 C26.85265379 0.1129199 30.94413402 0.11728643 35.03668976 0.10977936 C38.19037249 0.1067051 41.3438497 0.11884625 44.4974823 0.13591003 C46.00610565 0.14292529 47.5147523 0.14606636 49.02339172 0.1452179 C51.13450962 0.14702221 53.24453978 0.16845545 55.35546875 0.1953125 C57.15485901 0.20794128 57.15485901 0.20794128 58.99060059 0.2208252 C62.47938538 0.65256382 64.38053785 1.52169287 67.17773438 3.61523438 C68.42730233 6.11437029 68.31815741 7.83163613 68.33886719 10.62817383 C68.34847473 11.67298416 68.35808228 12.71779449 68.36798096 13.79426575 C68.37223083 14.92756821 68.37648071 16.06087067 68.38085938 17.22851562 C68.38655945 18.39021774 68.39225952 19.55191986 68.39813232 20.74882507 C68.40759233 23.2110401 68.41412026 25.67326785 68.41796875 28.13549805 C68.42766747 31.9017551 68.45867946 35.66746503 68.49023438 39.43359375 C68.49676492 41.82356446 68.50201519 44.21353908 68.50585938 46.60351562 C68.51820618 47.73074539 68.53055298 48.85797516 68.54327393 50.0193634 C68.54027283 51.07363022 68.53727173 52.12789703 68.53417969 53.21411133 C68.53964813 54.60071709 68.53964813 54.60071709 68.54522705 56.01533508 C68.09672464 59.18835369 67.0904652 61.05960431 65.17773438 63.61523438 C62.16282881 64.6202029 60.13591746 64.7185874 56.99023438 64.67773438 C55.63865234 64.66419922 55.63865234 64.66419922 54.25976562 64.65039062 C53.57269531 64.63878906 52.885625 64.6271875 52.17773438 64.61523438 C52.22994141 65.61103516 52.22994141 65.61103516 52.28320312 66.62695312 C52.56225333 75.7293052 52.56225333 75.7293052 49.17773438 79.61523438 C45.40804628 80.87179707 41.86055695 80.79698799 37.93164062 80.81835938 C37.1241185 80.82405945 36.31659637 80.82975952 35.48460388 80.83563232 C33.77742825 80.84507272 32.07023448 80.85161249 30.36303711 80.85546875 C27.75342062 80.86518528 25.14458831 80.89622128 22.53515625 80.92773438 C20.87565571 80.9342637 19.21614955 80.93951445 17.55664062 80.94335938 C16.7773671 80.95570618 15.99809357 80.96805298 15.19520569 80.98077393 C11.95496273 80.96746725 9.59389643 80.84063312 6.71655273 79.28222656 C3.93726617 76.27144302 4.06465038 73.32270176 4.11523438 69.42773438 C4.12876953 68.07615234 4.12876953 68.07615234 4.14257812 66.69726562 C4.15417969 66.01019531 4.16578125 65.323125 4.17773438 64.61523438 C3.05625 64.66744141 3.05625 64.66744141 1.91210938 64.72070312 C0.92726562 64.74777344 -0.05757812 64.77484375 -1.07226562 64.80273438 C-2.04679688 64.83753906 -3.02132812 64.87234375 -4.02539062 64.90820312 C-7.2500348 64.57042615 -8.53017359 63.87052676 -10.82226562 61.61523438 C-11.81476399 58.63773928 -11.97162919 56.60049503 -12.01513672 53.48876953 C-12.03923111 51.92166733 -12.03923111 51.92166733 -12.06381226 50.32290649 C-12.10828905 45.55512174 -12.14930867 40.78747482 -12.17236328 36.01953125 C-12.18894187 33.50348676 -12.21625644 30.98748973 -12.25439453 28.47167969 C-12.30908779 24.84480347 -12.33102484 21.21902962 -12.34570312 17.59179688 C-12.3683725 16.46770416 -12.39104187 15.34361145 -12.41439819 14.18545532 C-12.41154816 13.1344162 -12.40869812 12.08337708 -12.40576172 11.00048828 C-12.41384857 10.07910065 -12.42193542 9.15771301 -12.43026733 8.20840454 C-10.86931303 1.55082436 -6.25450608 -0.01071157 0 0 Z " fill="#143342" transform="translate(155.822265625,103.384765625)"/>
<path d="M0 0 C0.66569504 -0.00554901 1.33139008 -0.01109802 2.01725769 -0.01681519 C4.20691044 -0.02857861 6.39447797 -0.00437471 8.58398438 0.02148438 C10.11185614 0.02319649 11.63973084 0.02312877 13.16760254 0.0213623 C16.36543997 0.02301365 19.56257476 0.04167599 22.76025391 0.07324219 C26.85265379 0.1129199 30.94413402 0.11728643 35.03668976 0.10977936 C38.19037249 0.1067051 41.3438497 0.11884625 44.4974823 0.13591003 C46.00610565 0.14292529 47.5147523 0.14606636 49.02339172 0.1452179 C51.13450962 0.14702221 53.24453978 0.16845545 55.35546875 0.1953125 C57.15485901 0.20794128 57.15485901 0.20794128 58.99060059 0.2208252 C62.47938538 0.65256382 64.38053785 1.52169287 67.17773438 3.61523438 C68.42730233 6.11437029 68.31815741 7.83163613 68.33886719 10.62817383 C68.34847473 11.67298416 68.35808228 12.71779449 68.36798096 13.79426575 C68.37223083 14.92756821 68.37648071 16.06087067 68.38085938 17.22851562 C68.38655945 18.39021774 68.39225952 19.55191986 68.39813232 20.74882507 C68.40759233 23.2110401 68.41412026 25.67326785 68.41796875 28.13549805 C68.42766747 31.9017551 68.45867946 35.66746503 68.49023438 39.43359375 C68.49676492 41.82356446 68.50201519 44.21353908 68.50585938 46.60351562 C68.51820618 47.73074539 68.53055298 48.85797516 68.54327393 50.0193634 C68.54027283 51.07363022 68.53727173 52.12789703 68.53417969 53.21411133 C68.53964813 54.60071709 68.53964813 54.60071709 68.54522705 56.01533508 C68.09672464 59.18835369 67.0904652 61.05960431 65.17773438 63.61523438 C62.16282881 64.6202029 60.13591746 64.7185874 56.99023438 64.67773438 C55.63865234 64.66419922 55.63865234 64.66419922 54.25976562 64.65039062 C53.57269531 64.63878906 52.885625 64.6271875 52.17773438 64.61523438 C52.22994141 65.61103516 52.22994141 65.61103516 52.28320312 66.62695312 C52.56225333 75.7293052 52.56225333 75.7293052 49.17773438 79.61523438 C45.40804628 80.87179707 41.86055695 80.79698799 37.93164062 80.81835938 C37.1241185 80.82405945 36.31659637 80.82975952 35.48460388 80.83563232 C33.77742825 80.84507272 32.07023448 80.85161249 30.36303711 80.85546875 C27.75342062 80.86518528 25.14458831 80.89622128 22.53515625 80.92773438 C20.87565571 80.9342637 19.21614955 80.93951445 17.55664062 80.94335938 C16.7773671 80.95570618 15.99809357 80.96805298 15.19520569 80.98077393 C11.95496273 80.96746725 9.59389643 80.84063312 6.71655273 79.28222656 C3.93726617 76.27144302 4.06465038 73.32270176 4.11523438 69.42773438 C4.12876953 68.07615234 4.12876953 68.07615234 4.14257812 66.69726562 C4.15417969 66.01019531 4.16578125 65.323125 4.17773438 64.61523438 C3.05625 64.66744141 3.05625 64.66744141 1.91210938 64.72070312 C0.92726563 64.74777344 -0.05757812 64.77484375 -1.07226562 64.80273438 C-2.04679687 64.83753906 -3.02132812 64.87234375 -4.02539062 64.90820312 C-7.2500348 64.57042615 -8.53017359 63.87052676 -10.82226562 61.61523438 C-11.81476399 58.63773928 -11.97162919 56.60049503 -12.01513672 53.48876953 C-12.03923111 51.92166733 -12.03923111 51.92166733 -12.06381226 50.32290649 C-12.10828905 45.55512174 -12.14930867 40.78747482 -12.17236328 36.01953125 C-12.18894187 33.50348676 -12.21625644 30.98748973 -12.25439453 28.47167969 C-12.30908779 24.84480347 -12.33102484 21.21902962 -12.34570312 17.59179688 C-12.3683725 16.46770416 -12.39104187 15.34361145 -12.41439819 14.18545532 C-12.41154816 13.1344162 -12.40869812 12.08337708 -12.40576172 11.00048828 C-12.41384857 10.07910065 -12.42193542 9.15771301 -12.43026733 8.20840454 C-10.86931303 1.55082436 -6.25450608 -0.01071157 0 0 Z " fill="#143342" transform="translate(59.822265625,103.384765625)"/>
<path d="M0 0 C116.16 0 232.32 0 352 0 C352 5.28 352 10.56 352 16 C235.84 16 119.68 16 0 16 C0 10.72 0 5.44 0 0 Z " fill="#F0485A" transform="translate(80,232)"/>
<path d="M0 0 C3.24237082 2.32785597 4.32886578 4.15332767 5 8 C5.08916797 10.60866952 5.12630632 13.18968285 5.11352539 15.79785156 C5.11367142 16.57872131 5.11381744 17.35959106 5.1139679 18.16412354 C5.11327242 20.73965249 5.10549712 23.31510871 5.09765625 25.890625 C5.09579077 27.67852743 5.09436748 29.46643037 5.09336853 31.2543335 C5.08955357 35.95610978 5.07973198 40.65785508 5.06866455 45.35961914 C5.05662825 51.00309611 5.05204333 56.64658344 5.04621124 62.29006958 C5.0365197 70.86006792 5.01735599 79.42999831 5 88 C28.76 88 52.52 88 77 88 C77.66 86.02 78.32 84.04 79 82 C82.48133562 77.26942521 87.13429656 73.16070457 93 72 C100.88977562 71.24679946 108.56539726 70.83216469 115 76 C120.04521222 80.80448639 123.60562995 85.16177055 124.3359375 92.26953125 C124.42983204 100.78576573 124.1177288 106.67595494 118.12890625 112.96484375 C111.22505269 119.3466668 105.79832071 120.48042252 96.4453125 120.3046875 C88.52790117 119.60450827 84.39427507 115.885806 79.34765625 110 C77.96431314 107.94703863 77.52957463 106.38821676 77 104 C75.94399597 104.00888245 74.88799194 104.01776489 73.79998779 104.0269165 C63.85318038 104.10796681 53.90643987 104.16794832 43.95937729 104.20724869 C38.8453369 104.22813264 33.73156287 104.25646516 28.61767578 104.30175781 C23.68341704 104.34518655 18.74941465 104.36913102 13.81497955 104.37950897 C11.93146986 104.38690568 10.04797436 104.40134961 8.16457367 104.42292023 C5.52835152 104.45191492 2.89319162 104.45595769 0.25683594 104.45410156 C-0.52359573 104.46848267 -1.3040274 104.48286377 -2.10810852 104.49768066 C-5.57556514 104.4712254 -7.61005275 104.28264118 -10.45355225 102.22161865 C-13.57422194 97.7384811 -13.15371561 92.87032648 -13.16113281 87.57885742 C-13.16609772 86.73120316 -13.17106262 85.88354889 -13.17617798 85.01020813 C-13.1907714 82.20862004 -13.19759693 79.40708859 -13.203125 76.60546875 C-13.2088788 74.65497334 -13.2146365 72.70447793 -13.22039795 70.75398254 C-13.23089993 66.66435483 -13.23674784 62.57474672 -13.24023438 58.48510742 C-13.24571721 53.25295647 -13.26974421 48.021066 -13.29820633 42.7889967 C-13.31685923 38.75945791 -13.32203973 34.72998153 -13.32357025 30.70040321 C-13.32659134 28.77195118 -13.33460147 26.8435001 -13.34775543 24.91509056 C-13.36487128 22.21296927 -13.3629222 19.51148015 -13.35644531 16.80932617 C-13.3656601 16.01791229 -13.37487488 15.22649841 -13.3843689 14.41110229 C-13.3456084 9.23096885 -12.44498748 5.59474497 -10 1 C-6.80249299 -0.59875351 -3.47041009 -0.50166324 0 0 Z " fill="#2676A4" transform="translate(332,280)"/>
<path d="M0 0 C3.24794349 2.33185686 4.24880581 4.17150985 5 8 C5.10473836 10.81511092 5.15718649 13.60581659 5.16113281 16.42114258 C5.16609772 17.26879684 5.17106262 18.11645111 5.17617798 18.98979187 C5.1907714 21.79137996 5.19759693 24.59291141 5.203125 27.39453125 C5.2088788 29.34502666 5.2146365 31.29552207 5.22039795 33.24601746 C5.23089993 37.33564517 5.23674784 41.42525328 5.24023438 45.51489258 C5.24571721 50.74704353 5.26974421 55.978934 5.29820633 61.2110033 C5.31685923 65.24054209 5.32203973 69.27001847 5.32357025 73.29959679 C5.32659134 75.22804882 5.33460147 77.1564999 5.34775543 79.08490944 C5.36487128 81.78703073 5.3629222 84.48851985 5.35644531 87.19067383 C5.3656601 87.98208771 5.37487488 88.77350159 5.3843689 89.58889771 C5.3456084 94.76903115 4.44498748 98.40525503 2 103 C-1.1623205 104.58116025 -4.55841707 104.12937122 -8.02978516 104.11352539 C-8.85913071 104.11367142 -9.68847626 104.11381744 -10.54295349 104.1139679 C-13.29168285 104.11326971 -16.04034494 104.10548171 -18.7890625 104.09765625 C-20.69192467 104.09579174 -22.59478732 104.09436799 -24.49765015 104.09336853 C-29.51181356 104.08954599 -34.52594811 104.07971793 -39.5401001 104.06866455 C-44.65433359 104.05844479 -49.76857174 104.0538697 -54.8828125 104.04882812 C-64.92188769 104.03809545 -74.96094145 104.02102216 -85 104 C-85.29946533 104.9485083 -85.59893066 105.8970166 -85.9074707 106.87426758 C-87.88624877 112.53556268 -92.09582558 115.79531823 -97.0625 118.9375 C-103.77307977 121.36666915 -112.89319598 121.37591485 -119.4375 118.5 C-125.26235779 114.98003218 -129.98216582 109.51037066 -132 103 C-132.80514105 95.16391792 -133.12460392 87.38077423 -128 81 C-123.19551361 75.95478778 -118.83822945 72.39437005 -111.73046875 71.6640625 C-103.18114273 71.56980312 -97.30690155 71.89498446 -91 77.90625 C-87.82034459 81.34232923 -86.15818909 83.36724364 -85 88 C-61.24 88 -37.48 88 -13 88 C-13.03480469 82.30621094 -13.06960937 76.61242187 -13.10546875 70.74609375 C-13.12080308 67.13215116 -13.13524535 63.51824886 -13.14648438 59.90429688 C-13.1643958 54.17203406 -13.18555193 48.43991545 -13.22631836 42.70776367 C-13.25898995 38.08472682 -13.27686948 33.46184467 -13.28463173 28.83870125 C-13.29016125 27.07770415 -13.30095907 25.31671521 -13.31719017 23.55578423 C-13.33906836 21.08314805 -13.34196263 18.61114562 -13.34057617 16.13842773 C-13.351362 15.41553558 -13.36214783 14.69264343 -13.3732605 13.94784546 C-13.34250514 8.85608816 -12.32944292 5.43580667 -10 1 C-6.80249299 -0.59875351 -3.47041009 -0.50166324 0 0 Z " fill="#2676A4" transform="translate(188,280)"/>
<path d="M0 0 C10.56 0 21.12 0 32 0 C32 47.52 32 95.04 32 144 C21.44 144 10.88 144 0 144 C0 96.48 0 48.96 0 0 Z " fill="#EF475A" transform="translate(448,72)"/>
<path d="M0 0 C2.96991701 0.60983922 4.20486489 1.94625545 5.90234375 4.390625 C8.16745279 13.45106115 6.90234375 23.05134118 6.90234375 32.390625 C28.02234375 32.390625 49.14234375 32.390625 70.90234375 32.390625 C71.56234375 30.410625 72.22234375 28.430625 72.90234375 26.390625 C76.38367937 21.66005021 81.03664031 17.55132957 86.90234375 16.390625 C94.79211937 15.63742446 102.46774101 15.22278969 108.90234375 20.390625 C113.94755597 25.19511139 117.5079737 29.55239555 118.23828125 36.66015625 C118.33217579 45.17639073 118.02007255 51.06657994 112.03125 57.35546875 C105.12739644 63.7372918 99.70066446 64.87104752 90.34765625 64.6953125 C82.43024492 63.99513327 78.29661882 60.276431 73.25 54.390625 C71.86665689 52.33766363 71.43191838 50.77884176 70.90234375 48.390625 C69.46867462 48.40394867 69.46867462 48.40394867 68.00604248 48.4175415 C59.00107516 48.49860944 49.99618183 48.5585817 40.99093246 48.59787369 C36.36115059 48.61875326 31.73166318 48.64707749 27.10205078 48.69238281 C22.63462681 48.73582763 18.16748616 48.75975932 13.69986725 48.77013397 C11.9949828 48.77752783 10.29011395 48.79196632 8.58535004 48.81354523 C6.19816011 48.84256194 3.81214245 48.84658186 1.42480469 48.84472656 C0.36636604 48.86629822 0.36636604 48.86629822 -0.7134552 48.88830566 C-4.02833648 48.86040895 -5.82614899 48.58825477 -8.53546143 46.6161499 C-10.20624902 44.2359222 -10.60202876 43.18989914 -10.61523438 40.328125 C-10.62784302 39.54050781 -10.64045166 38.75289063 -10.65344238 37.94140625 C-10.64534546 37.09964844 -10.63724854 36.25789063 -10.62890625 35.390625 C-10.63273315 34.51792969 -10.63656006 33.64523437 -10.64050293 32.74609375 C-10.64322115 30.90363408 -10.63586619 29.06113576 -10.61914062 27.21875 C-10.59772873 24.40016566 -10.61894426 21.58413015 -10.64453125 18.765625 C-10.64188796 16.97395271 -10.63676294 15.18228201 -10.62890625 13.390625 C-10.63700317 12.54886719 -10.6451001 11.70710938 -10.65344238 10.83984375 C-10.56001024 5.00346882 -10.56001024 5.00346882 -8.18945312 1.86132812 C-5.28494103 -0.18077982 -3.45034294 -0.17990615 0 0 Z " fill="#143342" transform="translate(378.09765625,279.609375)"/>
<path d="M0 0 C0.99 0.01546875 0.99 0.01546875 2 0.03125 C2.66 0.0209375 3.32 0.010625 4 0 C7.05368756 0.81113576 8.09111769 2.00105288 10 4.53125 C10.60114553 7.52861221 10.56057764 10.48234277 10.53125 13.53125 C10.5350769 14.40394531 10.53890381 15.27664063 10.54284668 16.17578125 C10.5455649 18.01824092 10.53820994 19.86073924 10.52148438 21.703125 C10.50007248 24.52170934 10.52128801 27.33774485 10.546875 30.15625 C10.54423171 31.94792229 10.53910669 33.73959299 10.53125 35.53125 C10.53934692 36.37300781 10.54744385 37.21476562 10.55578613 38.08203125 C10.53687317 39.26345703 10.53687317 39.26345703 10.51757812 40.46875 C10.51439575 41.15839844 10.51121338 41.84804688 10.50793457 42.55859375 C9.72986992 45.58034929 8.51253527 46.70237897 6 48.53125 C3.34981499 48.90572079 1.1217251 49.03924176 -1.52246094 48.98535156 C-2.6498745 48.98622772 -2.6498745 48.98622772 -3.80006409 48.98712158 C-6.27864135 48.98433998 -8.75600845 48.95324617 -11.234375 48.921875 C-12.95501041 48.91441284 -14.67565432 48.90871979 -16.39630127 48.90472412 C-20.92075139 48.88946575 -25.44468628 48.85018242 -29.96893311 48.8059082 C-34.58729076 48.76495975 -39.20573181 48.74671403 -43.82421875 48.7265625 C-52.88303863 48.68368818 -61.94147644 48.61543454 -71 48.53125 C-71.29946533 49.4797583 -71.59893066 50.4282666 -71.9074707 51.40551758 C-73.88624877 57.06681268 -78.09582558 60.32656823 -83.0625 63.46875 C-89.77307977 65.89791915 -98.89319598 65.90716485 -105.4375 63.03125 C-111.26235779 59.51128218 -115.98216582 54.04162066 -118 47.53125 C-118.80514105 39.69516792 -119.12460392 31.91202423 -114 25.53125 C-109.19551361 20.48603778 -104.83822945 16.92562005 -97.73046875 16.1953125 C-89.18114273 16.10105312 -83.30690155 16.42623446 -77 22.4375 C-73.82034459 25.87357923 -72.15818909 27.89849364 -71 32.53125 C-49.55 32.53125 -28.1 32.53125 -6 32.53125 C-6 23.29125 -6 14.05125 -6 4.53125 C-2 0.53125 -2 0.53125 0 0 Z " fill="#143342" transform="translate(134,279.46875)"/>
<path d="M0 0 C10.56 0 21.12 0 32 0 C32 21.12 32 42.24 32 64 C21.44 64 10.88 64 0 64 C0 42.88 0 21.76 0 0 Z " fill="#EF475A" transform="translate(448,152)"/>
<path d="M0 0 C4.88201639 3.92090354 8.8728567 8.35850344 10.74609375 14.40234375 C11.5512348 22.23842583 11.87069767 30.02156952 6.74609375 36.40234375 C1.94160736 41.44755597 -2.4156768 45.0079737 -9.5234375 45.73828125 C-18.06716779 45.83247894 -23.82697453 45.45963107 -30.21875 39.6015625 C-36.36979376 33.12346937 -37.71244629 26.89569204 -37.49609375 18.109375 C-36.87240988 11.13819882 -34.2901706 6.56993441 -29.1171875 1.87890625 C-21.30354932 -4.31303344 -8.65048184 -5.22749548 0 0 Z " fill="#143342" transform="translate(405.25390625,410.59765625)"/>
<path d="M0 0 C5.25495606 3.18687658 9.2224526 7.87816813 12 13.3125 C13.39393635 21.21147263 13.41520876 29.28467971 9.5625 36.5 C5.98386039 41.25302522 1.53354508 45.31845044 -4.4375 46.5 C-12.32727562 47.25320054 -20.00289726 47.66783531 -26.4375 42.5 C-31.48271222 37.69551361 -35.04312995 33.33822945 -35.7734375 26.23046875 C-35.86733204 17.71423427 -35.5552288 11.82404506 -29.56640625 5.53515625 C-21.52363185 -1.89946886 -10.4806088 -4.64434821 0 0 Z " fill="#143342" transform="translate(131.4375,409.5)"/>
<path d="M0 0 C4.88201639 3.92090354 8.8728567 8.35850344 10.74609375 14.40234375 C11.5512348 22.23842583 11.87069767 30.02156952 6.74609375 36.40234375 C1.94160736 41.44755597 -2.4156768 45.0079737 -9.5234375 45.73828125 C-18.06716779 45.83247894 -23.82697453 45.45963107 -30.21875 39.6015625 C-36.36979376 33.12346937 -37.71244629 26.89569204 -37.49609375 18.109375 C-36.87240988 11.13819882 -34.2901706 6.56993441 -29.1171875 1.87890625 C-21.30354932 -4.31303344 -8.65048184 -5.22749548 0 0 Z " fill="#143342" transform="translate(445.25390625,354.59765625)"/>
<path d="M0 0 C5.25495606 3.18687658 9.2224526 7.87816813 12 13.3125 C13.39393635 21.21147263 13.41520876 29.28467971 9.5625 36.5 C5.98386039 41.25302522 1.53354508 45.31845044 -4.4375 46.5 C-12.32727562 47.25320054 -20.00289726 47.66783531 -26.4375 42.5 C-31.48271222 37.69551361 -35.04312995 33.33822945 -35.7734375 26.23046875 C-35.86733204 17.71423427 -35.5552288 11.82404506 -29.56640625 5.53515625 C-21.52363185 -1.89946886 -10.4806088 -4.64434821 0 0 Z " fill="#143342" transform="translate(91.4375,353.5)"/>
<path d="M0 0 C15.84 0 31.68 0 48 0 C48 10.56 48 21.12 48 32 C44.37 32.33 40.74 32.66 37 33 C34.16666667 34.16666667 34.16666667 34.16666667 33 37 C32.39259162 40.69773173 32.17898615 44.24129092 32 48 C26.72 48 21.44 48 16 48 C15.70703125 43.84960938 15.70703125 43.84960938 15.4140625 39.69921875 C15.16134528 36.78471567 15.16134528 36.78471567 13 34 C8.71 33.34 4.42 32.68 0 32 C0 21.44 0 10.88 0 0 Z " fill="#EFEA5F" transform="translate(352,120)"/>
<path d="M0 0 C15.84 0 31.68 0 48 0 C48 10.56 48 21.12 48 32 C44.37 32.33 40.74 32.66 37 33 C34.16666667 34.16666667 34.16666667 34.16666667 33 37 C32.39259162 40.69773173 32.17898615 44.24129092 32 48 C26.72 48 21.44 48 16 48 C15.70703125 43.84960938 15.70703125 43.84960938 15.4140625 39.69921875 C15.16134528 36.78471567 15.16134528 36.78471567 13 34 C8.71 33.34 4.42 32.68 0 32 C0 21.44 0 10.88 0 0 Z " fill="#EFEA5F" transform="translate(256,120)"/>
<path d="M0 0 C15.84 0 31.68 0 48 0 C48 10.56 48 21.12 48 32 C44.37 32.33 40.74 32.66 37 33 C34.16666667 34.16666667 34.16666667 34.16666667 33 37 C32.39259162 40.69773173 32.17898615 44.24129092 32 48 C26.72 48 21.44 48 16 48 C15.70703125 43.84960938 15.70703125 43.84960938 15.4140625 39.69921875 C15.16134528 36.78471567 15.16134528 36.78471567 13 34 C8.71 33.34 4.42 32.68 0 32 C0 21.44 0 10.88 0 0 Z " fill="#EFEA5F" transform="translate(160,120)"/>
<path d="M0 0 C15.84 0 31.68 0 48 0 C48 10.56 48 21.12 48 32 C44.37 32.33 40.74 32.66 37 33 C34.16666667 34.16666667 34.16666667 34.16666667 33 37 C32.39259162 40.69773173 32.17898615 44.24129092 32 48 C26.72 48 21.44 48 16 48 C15.70703125 43.84960938 15.70703125 43.84960938 15.4140625 39.69921875 C15.16134528 36.78471567 15.16134528 36.78471567 13 34 C8.71 33.34 4.42 32.68 0 32 C0 21.44 0 10.88 0 0 Z " fill="#EFEA5F" transform="translate(64,120)"/>
<path d="M0 0 C2.96991701 0.60983922 4.20486489 1.94625545 5.90234375 4.390625 C8.16745279 13.45106115 6.90234375 23.05134118 6.90234375 32.390625 C28.02234375 32.390625 49.14234375 32.390625 70.90234375 32.390625 C70.90234375 37.670625 70.90234375 42.950625 70.90234375 48.390625 C60.93188832 48.48097487 50.96170453 48.5543689 40.99093246 48.59787369 C36.36115059 48.61875326 31.73166318 48.64707749 27.10205078 48.69238281 C22.63462681 48.73582763 18.16748616 48.75975932 13.69986725 48.77013397 C11.9949828 48.77752783 10.29011395 48.79196632 8.58535004 48.81354523 C6.19816011 48.84256194 3.81214245 48.84658186 1.42480469 48.84472656 C0.36636604 48.86629822 0.36636604 48.86629822 -0.7134552 48.88830566 C-4.02833648 48.86040895 -5.82614899 48.58825477 -8.53546143 46.6161499 C-10.20624902 44.2359222 -10.60202876 43.18989914 -10.61523438 40.328125 C-10.62784302 39.54050781 -10.64045166 38.75289063 -10.65344238 37.94140625 C-10.64534546 37.09964844 -10.63724854 36.25789063 -10.62890625 35.390625 C-10.63273315 34.51792969 -10.63656006 33.64523437 -10.64050293 32.74609375 C-10.64322115 30.90363408 -10.63586619 29.06113576 -10.61914062 27.21875 C-10.59772873 24.40016566 -10.61894426 21.58413015 -10.64453125 18.765625 C-10.64188796 16.97395271 -10.63676294 15.18228201 -10.62890625 13.390625 C-10.63700317 12.54886719 -10.6451001 11.70710938 -10.65344238 10.83984375 C-10.56001024 5.00346882 -10.56001024 5.00346882 -8.18945312 1.86132812 C-5.28494103 -0.18077982 -3.45034294 -0.17990615 0 0 Z " fill="#2878A4" transform="translate(378.09765625,279.609375)"/>
<path d="M0 0 C0.99 0.01546875 0.99 0.01546875 2 0.03125 C2.66 0.0209375 3.32 0.010625 4 0 C7.05368756 0.81113576 8.09111769 2.00105288 10 4.53125 C10.60114553 7.52861221 10.56057764 10.48234277 10.53125 13.53125 C10.53699036 14.84029297 10.53699036 14.84029297 10.54284668 16.17578125 C10.5455649 18.01824092 10.53820994 19.86073924 10.52148438 21.703125 C10.50007248 24.52170934 10.52128801 27.33774485 10.546875 30.15625 C10.54423171 31.94792229 10.53910669 33.73959299 10.53125 35.53125 C10.53934692 36.37300781 10.54744385 37.21476562 10.55578613 38.08203125 C10.54317749 38.86964844 10.53056885 39.65726562 10.51757812 40.46875 C10.51439575 41.15839844 10.51121338 41.84804688 10.50793457 42.55859375 C9.72986992 45.58034929 8.51253527 46.70237897 6 48.53125 C3.34981499 48.90572079 1.1217251 49.03924176 -1.52246094 48.98535156 C-2.6498745 48.98622772 -2.6498745 48.98622772 -3.80006409 48.98712158 C-6.27864135 48.98433998 -8.75600845 48.95324617 -11.234375 48.921875 C-12.95501041 48.91441284 -14.67565432 48.90871979 -16.39630127 48.90472412 C-20.92075139 48.88946575 -25.44468628 48.85018242 -29.96893311 48.8059082 C-34.58729076 48.76495975 -39.20573181 48.74671403 -43.82421875 48.7265625 C-52.88307506 48.68368801 -61.94141404 48.61333673 -71 48.53125 C-71 43.25125 -71 37.97125 -71 32.53125 C-49.55 32.53125 -28.1 32.53125 -6 32.53125 C-6 23.29125 -6 14.05125 -6 4.53125 C-2 0.53125 -2 0.53125 0 0 Z " fill="#2979A2" transform="translate(134,279.46875)"/>
<path d="M0 0 C10.56 0 21.12 0 32 0 C32 7.92 32 15.84 32 24 C21.44 24 10.88 24 0 24 C0 16.08 0 8.16 0 0 Z " fill="#EF475A" transform="translate(448,192)"/>
<path d="M0 0 C10.56 0 21.12 0 32 0 C32 5.28 32 10.56 32 16 C21.44 16 10.88 16 0 16 C0 10.72 0 5.44 0 0 Z " fill="#EFEA60" transform="translate(448,176)"/>
<path d="M0 0 C10.56 0 21.12 0 32 0 C32 5.28 32 10.56 32 16 C21.44 16 10.88 16 0 16 C0 10.72 0 5.44 0 0 Z " fill="#EFEA60" transform="translate(448,136)"/>
<path d="M0 0 C10.56 0 21.12 0 32 0 C32 5.28 32 10.56 32 16 C21.44 16 10.88 16 0 16 C0 10.72 0 5.44 0 0 Z " fill="#EFEA60" transform="translate(448,96)"/>
<path d="M0 0 C2.0625 0.60546875 2.0625 0.60546875 4.125 2.29296875 C5.67526643 6.11695928 5.67526643 9.09397822 4.125 12.91796875 C0.82131636 15.62098264 -2.74731654 15.90044556 -6.9375 15.60546875 C-9.5 14.16796875 -9.5 14.16796875 -10.9375 11.60546875 C-11.71939282 7.58077836 -11.51539749 4.63563385 -9.5 1.04296875 C-6.09820308 -0.86535635 -3.78681111 -0.62905908 0 0 Z " fill="#143545" transform="translate(26.9375,128.39453125)"/>
<path d="M0 0 C4.0743356 0.84881992 5.54405875 2.30225596 8 5.625 C8.625 8.625 8.625 8.625 8 11.625 C5.54405875 14.94774404 4.0743356 16.40118008 0 17.25 C-4.0743356 16.40118008 -5.54405875 14.94774404 -8 11.625 C-8.625 8.625 -8.625 8.625 -8 5.625 C-5.54405875 2.30225596 -4.0743356 0.84881992 0 0 Z " fill="#E5E25E" transform="translate(392,423.375)"/>
<path d="M0 0 C4.0743356 0.84881992 5.54405875 2.30225596 8 5.625 C8.625 8.625 8.625 8.625 8 11.625 C5.54405875 14.94774404 4.0743356 16.40118008 0 17.25 C-4.0743356 16.40118008 -5.54405875 14.94774404 -8 11.625 C-8.625 8.625 -8.625 8.625 -8 5.625 C-5.54405875 2.30225596 -4.0743356 0.84881992 0 0 Z " fill="#E5E25E" transform="translate(120,423.375)"/>
<path d="M0 0 C4.0743356 0.84881992 5.54405875 2.30225596 8 5.625 C8.625 8.625 8.625 8.625 8 11.625 C5.54405875 14.94774404 4.0743356 16.40118008 0 17.25 C-4.0743356 16.40118008 -5.54405875 14.94774404 -8 11.625 C-8.625 8.625 -8.625 8.625 -8 5.625 C-5.54405875 2.30225596 -4.0743356 0.84881992 0 0 Z " fill="#E5E25E" transform="translate(432,367.375)"/>
<path d="M0 0 C4.0743356 0.84881992 5.54405875 2.30225596 8 5.625 C8.625 8.625 8.625 8.625 8 11.625 C5.54405875 14.94774404 4.0743356 16.40118008 0 17.25 C-4.0743356 16.40118008 -5.54405875 14.94774404 -8 11.625 C-8.625 8.625 -8.625 8.625 -8 5.625 C-5.54405875 2.30225596 -4.0743356 0.84881992 0 0 Z " fill="#E5E25E" transform="translate(80,367.375)"/>
<path d="M0 0 C4.0743356 0.84881992 5.54405875 2.30225596 8 5.625 C8.625 8.625 8.625 8.625 8 11.625 C5.54405875 14.94774404 4.0743356 16.40118008 0 17.25 C-4.0743356 16.40118008 -5.54405875 14.94774404 -8 11.625 C-8.625 8.625 -8.625 8.625 -8 5.625 C-5.54405875 2.30225596 -4.0743356 0.84881992 0 0 Z " fill="#E5E25E" transform="translate(472,311.375)"/>
<path d="M0 0 C4.0743356 0.84881992 5.54405875 2.30225596 8 5.625 C8.625 8.625 8.625 8.625 8 11.625 C5.54405875 14.94774404 4.0743356 16.40118008 0 17.25 C-4.0743356 16.40118008 -5.54405875 14.94774404 -8 11.625 C-8.625 8.625 -8.625 8.625 -8 5.625 C-5.54405875 2.30225596 -4.0743356 0.84881992 0 0 Z " fill="#E5E25E" transform="translate(40,311.375)"/>
</svg>
