<?xml version="1.0" encoding="UTF-8"?>
<svg version="1.1" xmlns="http://www.w3.org/2000/svg" width="1488" height="359">
<path d="M0 0 C19.47 0 38.94 0 59 0 C59.33 31.02 59.66 62.04 60 94 C64.01861276 88.64432 64.01861276 88.64432 68.02734375 83.28125 C78.4942994 71.17688941 94.98982526 64.46026706 110.70703125 63.125 C130.80970865 62.02911299 150.62613609 65.86823137 166.25 79.25 C181.59551221 93.81852425 187.51117658 113.5075724 188.09012032 134.22493362 C188.12248954 137.96558976 188.12371488 141.70501677 188.11352539 145.44580078 C188.11324276 146.87582904 188.11340273 148.30585744 188.1139679 149.73588562 C188.11425291 153.58848931 188.10840429 157.44106139 188.10139394 161.29365778 C188.09511087 165.33085116 188.0945527 169.3680454 188.09336853 173.40524292 C188.09026975 181.03705778 188.08207608 188.66885818 188.07201904 196.30066669 C188.06081261 204.99480615 188.05533607 213.68894632 188.05032361 222.38309121 C188.03989215 240.25540398 188.02156487 258.12769696 188 276 C168.2 276 148.4 276 128 276 C127.96261719 266.31011719 127.92523437 256.62023437 127.88671875 246.63671875 C127.85643402 240.48891812 127.82540362 234.34113615 127.79101562 228.19335938 C127.73660159 218.44069127 127.68518552 208.68807494 127.65356445 198.93530273 C127.63051727 191.83127182 127.59704483 184.72737766 127.55129844 177.62345535 C127.52745635 173.86550864 127.50866879 170.10769662 127.50238609 166.34967613 C127.49629407 162.80455364 127.47614803 159.25977533 127.44572449 155.71478081 C127.43288866 153.80968113 127.43450288 151.90450076 127.4367218 149.99935913 C127.32373103 139.55070752 125.55449646 130.88719434 120 122 C119.67 121.01 119.34 120.02 119 119 C117.18081183 117.87892514 117.18081183 117.87892514 115 117 C114.32324219 116.64679688 113.64648438 116.29359375 112.94921875 115.9296875 C103.85175062 111.68734485 93.76057619 111.49506723 84.1875 114.4375 C74.8638956 118.41945605 68.25429022 125.33910206 64.28388977 134.61082458 C58.82799308 149.01314428 59.52224499 164.18502136 59.49388909 179.35818744 C59.48439658 182.76547632 59.45818616 186.17263962 59.43388367 189.57984924 C59.39050999 196.00732237 59.36178544 202.43477072 59.33856028 208.8623448 C59.30867259 216.91156545 59.2588092 224.96064793 59.20898438 233.00976562 C59.12036676 247.33980119 59.06153958 261.66976585 59 276 C39.53 276 20.06 276 0 276 C0 184.92 0 93.84 0 0 Z " fill="#333333" transform="translate(1300,38)"/>
<path d="M0 0 C1.25830006 0.03196095 1.25830006 0.03196095 2.54202032 0.06456757 C8.42266037 0.2173191 14.30216815 0.39599482 20.18139648 0.59570312 C21.29320917 0.63334825 21.29320917 0.63334825 22.42748272 0.67175388 C37.90932659 1.21635151 53.3441834 2.25390929 68.8125 3.1875 C68.8125 32.8875 68.8125 62.5875 68.8125 93.1875 C22.2825 93.1875 -24.2475 93.1875 -72.1875 93.1875 C-72.1875 139.7175 -72.1875 186.2475 -72.1875 234.1875 C-101.8875 234.1875 -131.5875 234.1875 -162.1875 234.1875 C-162.67113641 199.06116662 -162.67113641 199.06116662 -162.7734375 184.296875 C-162.84453629 174.11774827 -162.92793375 163.93981687 -163.09277344 153.76171875 C-163.21279206 146.34755015 -163.28989336 138.93435465 -163.31656194 131.51924157 C-163.33214097 127.59629523 -163.36845047 123.6761313 -163.45626068 119.75408173 C-164.03966477 92.67007677 -164.03966477 92.67007677 -157.98918533 85.91727066 C-155.56220554 83.72845682 -152.93003311 81.95616122 -150.1875 80.1875 C-148.12616065 78.07817501 -148.12616065 78.07817501 -146.5625 76.0625 C-143.19721695 72.10624042 -139.53224135 68.49685342 -135.8125 64.875 C-130.81430014 59.75779538 -126.44468499 54.91994689 -122.99633789 48.59765625 C-118.99297295 41.32111272 -114.41648497 34.68002609 -109.25 28.1875 C-108.77725521 27.59287838 -108.30451042 26.99825676 -107.81744003 26.3856163 C-81.27237142 -6.04882241 -37.94407597 -0.98254624 0 0 Z " fill="#00A89C" transform="translate(162.1875,-3.1875)"/>
<path d="M0 0 C14.02254176 13.34203605 22.44873848 30.7611468 27.25 49.3125 C27.73146484 51.12814453 27.73146484 51.12814453 28.22265625 52.98046875 C31.57213502 68.26343932 30.25 82.11454969 30.25 98.3125 C-16.28 98.3125 -62.81 98.3125 -110.75 98.3125 C-105.41842723 123.22163429 -105.41842723 123.22163429 -88.77734375 141.62109375 C-78.03541658 147.45120531 -65.40315239 147.91942783 -53.8125 144.5625 C-40.88818328 140.09406877 -35.86115313 132.53480626 -29.75 120.3125 C-9.29 120.3125 11.17 120.3125 32.25 120.3125 C27.60558684 138.89015262 27.60558684 138.89015262 24.4375 144.75 C24.09203125 145.41265869 23.7465625 146.07531738 23.390625 146.75805664 C20.54029978 152.08218748 17.23371844 156.76981884 13.25 161.3125 C12.68152344 162.034375 12.11304688 162.75625 11.52734375 163.5 C-3.87414863 182.3349461 -29.30422003 192.1734038 -52.9609375 194.6484375 C-56.22337118 194.9298129 -59.47993923 195.14343002 -62.75 195.3125 C-63.53503906 195.35503906 -64.32007813 195.39757812 -65.12890625 195.44140625 C-93.41616273 196.17933468 -120.0324792 187.97637432 -141.2421875 169.09375 C-158.6102607 152.48589549 -168.12057545 128.94317258 -170.75 105.3125 C-170.85957031 104.37921875 -170.96914063 103.4459375 -171.08203125 102.484375 C-174.34349751 69.95668483 -169.34449156 35.33067489 -148.75 9 C-131.83848524 -11.2808587 -108.39289974 -21.56783717 -82.375 -24.3125 C-52.25204627 -26.64925946 -23.27757648 -19.96158885 0 0 Z M-98.75 36.3125 C-104.65347526 44.08625729 -108.75 53.50272145 -108.75 63.3125 C-83.01 63.3125 -57.27 63.3125 -30.75 63.3125 C-34.2753248 49.2112008 -38.2681048 35.69139035 -51.3046875 27.7578125 C-67.86092218 19.06210467 -86.38406225 22.29040988 -98.75 36.3125 Z " fill="#333333" transform="translate(1023.75,125.6875)"/>
<path d="M0 0 C28.71 0 57.42 0 87 0 C87.061875 13.6125 87.12375 27.225 87.1875 41.25 C87.22846802 47.63327637 87.22846802 47.63327637 87.27026367 54.14550781 C87.28381348 59.45068359 87.28381348 59.45068359 87.28633118 61.95526123 C87.29085739 63.65857311 87.30123448 65.36187707 87.31672668 67.06512451 C87.70320447 111.90276893 71.61488968 152.14989099 40.57177734 184.48779297 C12.45522649 212.81949656 -27.55216173 228.75819398 -67.27589226 229.1049881 C-71.37541453 229.1200957 -75.47470386 229.11053774 -79.57421875 229.09765625 C-81.15157028 229.09618261 -82.7289223 229.0951645 -84.30627441 229.09460449 C-90.10002382 229.08940048 -95.8937627 229.07543935 -101.6875 229.0625 C-114.660625 229.041875 -127.63375 229.02125 -141 229 C-141 199.96 -141 170.92 -141 141 C-101.3125 140.6875 -101.3125 140.6875 -88.85668945 140.61206055 C-85.11932649 140.57542635 -85.11932649 140.57542635 -81.38200378 140.5349884 C-79.73845122 140.51901124 -78.0948379 140.5086075 -76.45121765 140.50288391 C-63.20163571 140.45070684 -50.71994012 139.60163195 -38.75 133.3125 C-38.07888184 132.97089844 -37.40776367 132.62929688 -36.71630859 132.27734375 C-31.72412445 129.6335004 -27.60128857 126.48391903 -23.6015625 122.46875 C-22 121 -22 121 -20 121 C-19.73703125 120.42121094 -19.4740625 119.84242188 -19.203125 119.24609375 C-17.93939939 116.88686574 -16.48383984 115.09702828 -14.75 113.0625 C-1.88891443 96.74499768 -0.88988547 77.55673897 -0.68359375 57.71484375 C-0.66515526 56.23473616 -0.64631682 54.7546335 -0.6270752 53.27453613 C-0.55905247 47.82891562 -0.4987288 42.38320113 -0.4375 36.9375 C-0.293125 24.748125 -0.14875 12.55875 0 0 Z " fill="#00A89C" transform="translate(143,130)"/>
<path d="M0 0 C19.47 0 38.94 0 59 0 C59.04898438 9.06597656 59.09796875 18.13195312 59.1484375 27.47265625 C59.18384904 33.23763941 59.21974533 39.0026129 59.2578125 44.76757812 C59.31806159 53.90533178 59.3764078 63.04306744 59.421875 72.1809082 C59.4550086 78.83814655 59.49495437 85.49530481 59.54279006 92.15245432 C59.56784483 95.67128903 59.58968567 99.19007209 59.60334396 102.70897102 C58.30392993 131.94718054 58.30392993 131.94718054 70.1953125 157.4921875 C76.70958946 162.9348518 84.30184927 163.65603167 92.53515625 163.37890625 C102.64540853 162.2732755 110.09664835 158.07019202 116.4609375 150.19140625 C122.07526228 142.00810255 125.08984907 131.45179924 125.15821838 121.57731628 C125.1680072 120.5018454 125.17779602 119.42637451 125.18788147 118.3183136 C125.19363693 117.14874619 125.1993924 115.97917877 125.20532227 114.77416992 C125.21522186 113.53473633 125.22512146 112.29530273 125.23532104 111.01831055 C125.26146082 107.62822408 125.28334256 104.23816055 125.30332303 100.84803557 C125.32523237 97.30192934 125.35259679 93.75586527 125.37937927 90.20979309 C125.42923939 83.49865691 125.47420292 76.78749723 125.51740164 70.07631522 C125.57607715 61.00476565 125.64232802 51.93327158 125.70815182 42.86177158 C125.81162196 28.57455183 125.90498056 14.28728424 126 0 C145.8 0 165.6 0 186 0 C186 67.98 186 135.96 186 206 C166.2 206 146.4 206 126 206 C125.67 198.41 125.34 190.82 125 183 C121.535 187.455 121.535 187.455 118 192 C106.87629785 204.6849235 92.10113879 211.27557526 75.36914062 212.72436523 C55.38115146 214.0296774 36.53153834 209.55365264 20.8125 196.75 C7.53866425 184.51777309 1.45053521 166.61977158 0 149 C-0.14106659 144.13817811 -0.12665887 139.27743981 -0.11352539 134.4140625 C-0.11324295 132.94492088 -0.11340237 131.47577911 -0.1139679 130.00663757 C-0.11425364 126.0382171 -0.10839298 122.06982714 -0.10139394 118.10141373 C-0.09512326 113.94676113 -0.09455367 109.79210777 -0.09336853 105.63745117 C-0.09026614 97.77890774 -0.08206752 89.9203783 -0.07201904 82.06184101 C-0.06082393 73.11140449 -0.0553389 64.16096729 -0.05032361 55.21052551 C-0.03988396 36.80700748 -0.02155211 18.40350861 0 0 Z " fill="#333333" transform="translate(438,108)"/>
<path d="M0 0 C73.92 0 147.84 0 224 0 C224 16.83 224 33.66 224 51 C197.27 51 170.54 51 143 51 C143 119.97 143 188.94 143 260 C122.54 260 102.08 260 81 260 C81 191.03 81 122.06 81 51 C54.27 51 27.54 51 0 51 C0 34.17 0 17.34 0 0 Z " fill="#333333" transform="translate(639,54)"/>
<path d="M0 0 C0.5775 0.43441406 1.155 0.86882812 1.75 1.31640625 C18.75167451 14.50057514 26.76954597 36.45098687 30 57 C30 58.32 30 59.64 30 61 C10.2 61 -9.6 61 -30 61 C-31.32 56.38 -32.64 51.76 -34 47 C-38.33151786 38.57110037 -44.0582112 32.9755153 -53.05859375 29.69140625 C-63.01116632 27.35195692 -73.15123323 28.20802744 -82.07421875 33.1484375 C-92.38642166 39.94467028 -97.04969925 51.87142283 -99.53735352 63.51513672 C-101.09393067 71.77393191 -101.34797562 79.86078754 -101.3125 88.25 C-101.30976578 89.27330917 -101.30976578 89.27330917 -101.30697632 90.31729126 C-101.22879543 107.69407569 -99.61360801 125.10939975 -88.01953125 139.02734375 C-80.72572773 146.15185202 -72.27508117 149.02630152 -62.25 149.375 C-53.24202901 149.22183577 -45.14390556 147.09126653 -38.4921875 140.7578125 C-33.44896558 134.81684426 -31.46772944 128.40318832 -29 121 C-9.2 121 10.6 121 31 121 C29.87300351 131.14296845 29.87300351 131.14296845 28.80078125 134.39453125 C28.56439941 135.11640625 28.32801758 135.83828125 28.08447266 136.58203125 C27.82972168 137.31808594 27.5749707 138.05414063 27.3125 138.8125 C27.0448584 139.59367188 26.7772168 140.37484375 26.50146484 141.1796875 C22.64833197 152.14091377 17.74964431 161.28904485 10 170 C9.40703125 170.68707031 8.8140625 171.37414062 8.203125 172.08203125 C-7.64149748 189.24703894 -32.55532477 197.63743988 -55.37109375 198.91015625 C-56.23863281 198.93980469 -57.10617187 198.96945312 -58 199 C-58.75410156 199.03996094 -59.50820312 199.07992187 -60.28515625 199.12109375 C-85.22458067 199.84831539 -109.80123089 193.2620549 -129 177 C-129.66386719 176.48050781 -130.32773438 175.96101562 -131.01171875 175.42578125 C-146.17712464 163.12064838 -155.43108207 143.64612452 -160 125 C-160.31839844 123.76636719 -160.63679688 122.53273437 -160.96484375 121.26171875 C-165.69407652 100.27051688 -165.3858116 73.80486899 -160 53 C-159.83371094 52.33774414 -159.66742187 51.67548828 -159.49609375 50.99316406 C-153.30018574 26.93238796 -139.86303541 6.02587768 -118.4140625 -6.99609375 C-83.33274192 -27.58730365 -31.75029559 -27.20539441 0 0 Z " fill="#333333" transform="translate(1240,122)"/>
<path d="M0 0 C19.8 0 39.6 0 60 0 C60 15.84 60 31.68 60 48 C73.86 48 87.72 48 102 48 C102 62.85 102 77.7 102 93 C88.14 93 74.28 93 60 93 C60.06181142 109.97184307 60.06181142 109.97184307 60.16015625 126.94335938 C60.20839862 133.87133999 60.25247823 140.79916277 60.27099609 147.72729492 C60.28620551 153.31662842 60.32072738 158.90554733 60.36830902 164.49469566 C60.38307863 166.62074862 60.39103846 168.74686077 60.39188385 170.87296486 C59.86524236 187.62649848 59.86524236 187.62649848 66.26983643 202.64338684 C75.27516973 211.26091352 89.99889681 209.47613794 101 210 C101 224.85 101 239.7 101 255 C81.44716604 263.37978598 55.79592821 263.52578762 35.75 256.19921875 C21.56316643 250.01263081 12.22999066 240.30045684 6.12890625 226.125 C1.53699299 213.41382144 -0.16447358 200.79441793 -0.11352539 187.33959961 C-0.11367142 186.31416046 -0.11381744 185.28872131 -0.1139679 184.23220825 C-0.11327609 180.87223124 -0.10551819 177.51231097 -0.09765625 174.15234375 C-0.09578947 171.81108124 -0.09436679 169.46981834 -0.09336853 167.1285553 C-0.08956384 160.98836169 -0.07975116 154.84819201 -0.06866455 148.70800781 C-0.05840627 142.43359704 -0.05386147 136.15918238 -0.04882812 129.88476562 C-0.03812695 117.58983158 -0.02054685 105.29492153 0 93 C-8.25 93 -16.5 93 -25 93 C-25 78.15 -25 63.3 -25 48 C-16.75 48 -8.5 48 0 48 C0 32.16 0 16.32 0 0 Z " fill="#333333" transform="translate(311,60)"/>
</svg>
